<?xml version="1.0" encoding="utf-8"?>
<svg viewBox="0 0 500 500" xmlns="http://www.w3.org/2000/svg">
  <ellipse style="stroke-width: 40px; fill: none; stroke: rgb(0, 136, 190);" cx="213.654" cy="229.599" rx="164.635" ry="159.876" transform="matrix(1, -0.000175, 0.000181, 1, -1.36831, -40.36248)"/>
  <path style="fill: rgb(216, 216, 216); stroke-width: 40px; stroke: rgb(0, 136, 190);" d="M 311.697 319.555 L 447.592 466.336" transform="matrix(0.997772, 0.066712, -0.066712, 0.997772, 27.059923, -24.451467)"/>
  <path style="fill: rgb(216, 216, 216); stroke-width: 40px; stroke: rgb(0, 136, 190);" d="M 165.481 219.134 L 253.036 316.801" transform="matrix(0.683395, -0.730048, 0.730048, 0.683395, -129.377051, 237.608574)"/>
  <path style="fill: rgb(216, 216, 216); stroke-width: 40px; stroke: rgb(0, 136, 190);" d="M 168.894 57.748 L 256.449 155.415" transform="matrix(0.683395, -0.730048, 0.730048, 0.683395, -10.476883, 189.004684)"/>
  <path style="fill: rgb(216, 216, 216); stroke-width: 40px; stroke: rgb(0, 136, 190);" d="M 80.711 218.748 L 160.449 148.147" transform="matrix(-0.683395, 0.730048, -0.730048, -0.683395, 336.909382, 220.785445)"/>
  <path style="fill: rgb(216, 216, 216); stroke-width: 40px; stroke: rgb(0, 136, 190);" d="M 262.194 223.906 L 341.932 153.305" transform="matrix(-0.683395, 0.730048, -0.730048, -0.683395, 646.182624, 96.977015)"/>
</svg>